<svg width="294" height="73" viewBox="0 0 294 73" fill="none" xmlns="http://www.w3.org/2000/svg">
<path d="M23.4476 20.8074L32.7513 3.68033L27.1598 4.71046L17.8559 21.8375L23.4476 20.8074Z" fill="#FF0707"/>
<path d="M54.2569 0.560236C53.7859 0.111851 53.1629 -0.081234 52.5523 0.0314844L38.2265 2.671L28.9228 19.798L53.237 15.317C54.2536 15.1308 55 14.1465 55 12.9948V2.35392C55.0001 1.664 54.7288 1.00642 54.2569 0.560236Z" fill="#FF0707"/>
<path d="M1.10511 24.3621L10.0707 7.86029L1.76304 9.39165C0.746162 9.57785 0 10.562 0 11.7138C0 11.7138 0 19.6947 0 22.3548C0 23.0446 0.234976 23.9781 1.10511 24.3621Z" fill="#FF0707"/>
<path d="M12.3805 22.847L21.6845 5.71967L15.5458 6.85109L6.24106 23.9781L12.3805 22.847Z" fill="#FF0707"/>
<path d="M52.8946 30.0986H2.10535C0.94252 30.0986 0 31.1517 0 32.4531V67.6457C0 68.9469 0.94252 70 2.10535 70H52.8946C54.0571 70 55 68.9469 55 67.6457V32.4531C55.0001 31.1519 54.0572 30.0986 52.8946 30.0986ZM45.5103 56.2115C45.5103 59.0832 43.4285 61.412 40.8605 61.412H14.1416C11.5725 61.412 9.49079 59.0832 9.49079 56.2115V43.8873C9.49079 41.0156 11.5725 38.6864 14.1416 38.6864H40.8604C43.4283 38.6864 45.5101 41.0156 45.5101 43.8873V56.2115H45.5103Z" fill="#FF0707"/>
<path d="M39.5599 52.7349H29.1798C28.0172 52.7349 27.0744 53.7879 27.0744 55.0892C27.0744 56.3906 28.0172 57.4437 29.1798 57.4437H39.5599C40.7228 57.4437 41.6653 56.3906 41.6653 55.0892C41.6653 53.788 40.7228 52.7349 39.5599 52.7349Z" fill="#FF0707"/>
<path d="M33.77 45.6716C33.77 44.3702 32.8273 43.3172 31.6645 43.3172H14.12C12.9574 43.3172 12.0147 44.3702 12.0147 45.6716C12.0147 46.973 12.9576 48.0259 14.12 48.0259H31.6646C32.8275 48.0259 33.77 46.973 33.77 45.6716Z" fill="#FF0707"/>
<path d="M69.3984 35.5625V64H63.5391V35.5625H69.3984ZM80.7266 47.7109V52.2812H67.7969V47.7109H80.7266ZM82.0938 35.5625V40.1523H67.7969V35.5625H82.0938ZM91.7227 35.5625V64H85.8828V35.5625H91.7227ZM115.492 59.4297V64H101.176V59.4297H115.492ZM103.07 35.5625V64H97.2109V35.5625H103.07ZM121.527 35.5625H126.488L133.793 56.4414L141.098 35.5625H146.059L135.785 64H131.801L121.527 35.5625ZM118.852 35.5625H123.793L124.691 55.9141V64H118.852V35.5625ZM143.793 35.5625H148.754V64H142.895V55.9141L143.793 35.5625ZM172.973 59.4297V64H157.836V59.4297H172.973ZM159.75 35.5625V64H153.891V35.5625H159.75ZM171 47.1445V51.5977H157.836V47.1445H171ZM172.953 35.5625V40.1523H157.836V35.5625H172.953ZM191.195 56.5586C191.195 56.0508 191.117 55.5951 190.961 55.1914C190.818 54.7747 190.544 54.3971 190.141 54.0586C189.737 53.707 189.171 53.362 188.441 53.0234C187.712 52.6849 186.768 52.3333 185.609 51.9688C184.32 51.5521 183.096 51.0833 181.938 50.5625C180.792 50.0417 179.776 49.4362 178.891 48.7461C178.018 48.043 177.328 47.2292 176.82 46.3047C176.326 45.3802 176.078 44.306 176.078 43.082C176.078 41.8971 176.339 40.8229 176.859 39.8594C177.38 38.8828 178.109 38.0495 179.047 37.3594C179.984 36.6562 181.091 36.1159 182.367 35.7383C183.656 35.3607 185.069 35.1719 186.605 35.1719C188.702 35.1719 190.531 35.5495 192.094 36.3047C193.656 37.0599 194.867 38.0951 195.727 39.4102C196.599 40.7253 197.035 42.2292 197.035 43.9219H191.215C191.215 43.0885 191.039 42.3594 190.688 41.7344C190.349 41.0964 189.828 40.5951 189.125 40.2305C188.435 39.8659 187.562 39.6836 186.508 39.6836C185.492 39.6836 184.646 39.8398 183.969 40.1523C183.292 40.4518 182.784 40.862 182.445 41.3828C182.107 41.8906 181.938 42.4635 181.938 43.1016C181.938 43.5833 182.055 44.0195 182.289 44.4102C182.536 44.8008 182.901 45.1654 183.383 45.5039C183.865 45.8424 184.457 46.1615 185.16 46.4609C185.863 46.7604 186.677 47.0534 187.602 47.3398C189.151 47.8086 190.512 48.3359 191.684 48.9219C192.868 49.5078 193.858 50.1654 194.652 50.8945C195.447 51.6237 196.046 52.4505 196.449 53.375C196.853 54.2995 197.055 55.3477 197.055 56.5195C197.055 57.7565 196.814 58.8633 196.332 59.8398C195.85 60.8164 195.154 61.6432 194.242 62.3203C193.331 62.9974 192.243 63.5117 190.98 63.8633C189.717 64.2148 188.305 64.3906 186.742 64.3906C185.336 64.3906 183.949 64.2083 182.582 63.8438C181.215 63.4661 179.971 62.8997 178.852 62.1445C177.745 61.3893 176.859 60.4258 176.195 59.2539C175.531 58.082 175.199 56.6953 175.199 55.0938H181.078C181.078 55.9792 181.215 56.7279 181.488 57.3398C181.762 57.9518 182.146 58.4466 182.641 58.8242C183.148 59.2018 183.747 59.4753 184.438 59.6445C185.141 59.8138 185.909 59.8984 186.742 59.8984C187.758 59.8984 188.591 59.7552 189.242 59.4688C189.906 59.1823 190.395 58.7852 190.707 58.2773C191.033 57.7695 191.195 57.1966 191.195 56.5586ZM222.562 40.4258L214.828 64H208.598L219.164 35.5625H223.129L222.562 40.4258ZM228.988 64L221.234 40.4258L220.609 35.5625H224.613L235.238 64H228.988ZM228.637 53.4141V58.0039H213.617V53.4141H228.637ZM248.949 53.8633H241.703V49.293H248.949C250.069 49.293 250.98 49.1107 251.684 48.7461C252.387 48.3685 252.901 47.8477 253.227 47.1836C253.552 46.5195 253.715 45.7708 253.715 44.9375C253.715 44.0911 253.552 43.3034 253.227 42.5742C252.901 41.8451 252.387 41.2591 251.684 40.8164C250.98 40.3737 250.069 40.1523 248.949 40.1523H243.734V64H237.875V35.5625H248.949C251.176 35.5625 253.083 35.9661 254.672 36.7734C256.273 37.5677 257.497 38.668 258.344 40.0742C259.19 41.4805 259.613 43.0885 259.613 44.8984C259.613 46.7344 259.19 48.3229 258.344 49.6641C257.497 51.0052 256.273 52.0404 254.672 52.7695C253.083 53.4987 251.176 53.8633 248.949 53.8633ZM274.73 53.8633H267.484V49.293H274.73C275.85 49.293 276.762 49.1107 277.465 48.7461C278.168 48.3685 278.682 47.8477 279.008 47.1836C279.333 46.5195 279.496 45.7708 279.496 44.9375C279.496 44.0911 279.333 43.3034 279.008 42.5742C278.682 41.8451 278.168 41.2591 277.465 40.8164C276.762 40.3737 275.85 40.1523 274.73 40.1523H269.516V64H263.656V35.5625H274.73C276.957 35.5625 278.865 35.9661 280.453 36.7734C282.055 37.5677 283.279 38.668 284.125 40.0742C284.971 41.4805 285.395 43.0885 285.395 44.8984C285.395 46.7344 284.971 48.3229 284.125 49.6641C283.279 51.0052 282.055 52.0404 280.453 52.7695C278.865 53.4987 276.957 53.8633 274.73 53.8633Z" fill="#FF0707"/>
</svg>
